HIERARCHY
ROOT Hips
{
	OFFSET 0.000000 0.000000 0.000000
	CHANNELS 6 Xposition Yposition Zposition Zrotation Yrotation Xrotation 
	JOINT LHipJoint
	{
		OFFSET 0.000000 0.000000 0.000000
		CHANNELS 3 Zrotation Yrotation Xrotation
		JOINT LeftUpLeg
		{
			OFFSET 1.363060 -1.794630 0.839290
			CHANNELS 3 Zrotation Yrotation Xrotation
			JOINT LeftLeg
			{
				OFFSET 2.448110 -6.726130 0.000000
				CHANNELS 3 Zrotation Yrotation Xrotation
				JOINT LeftFoot
				{
					OFFSET 2.562200 -7.039590 0.000000
					CHANNELS 3 Zrotation Yrotation Xrotation
					JOINT LeftToeBase
					{
						OFFSET 0.157640 -0.433110 2.322550
						CHANNELS 3 Zrotation Yrotation Xrotation
						End Site
						{
							OFFSET 0.000000 0.000000 0.000000
						}
					}
				}
			}
		}
	}
	JOINT RHipJoint
	{
		OFFSET 0.000000 0.000000 0.000000
		CHANNELS 3 Zrotation Yrotation Xrotation
		JOINT RightUpLeg
		{
			OFFSET -1.305520 -1.794630 0.839290
			CHANNELS 3 Zrotation Yrotation Xrotation
			JOINT RightLeg
			{
				OFFSET -2.542530 -6.985550 0.000000
				CHANNELS 3 Zrotation Yrotation Xrotation
				JOINT RightFoot
				{
					OFFSET -2.568260 -7.056230 0.000000
					CHANNELS 3 Zrotation Yrotation Xrotation
					JOINT RightToeBase
					{
						OFFSET -0.164730 -0.452590 2.363150
						CHANNELS 3 Zrotation Yrotation Xrotation
						End Site
						{
							OFFSET 0.000000 0.000000 0.000000
						}
					}
				}
			}
		}
	}
	JOINT LowerBack
	{
		OFFSET 0.000000 0.000000 0.000000
		CHANNELS 3 Zrotation Yrotation Xrotation
		JOINT Spine
		{
			OFFSET 0.028270 2.035590 -0.193380
			CHANNELS 3 Zrotation Yrotation Xrotation
			JOINT Spine1
			{
				OFFSET 0.056720 2.048850 -0.042750
				CHANNELS 3 Zrotation Yrotation Xrotation
				JOINT Neck
				{
					OFFSET 0.000000 0.000000 0.000000
					CHANNELS 3 Zrotation Yrotation Xrotation
					JOINT Neck1
					{
						OFFSET -0.054170 1.746240 0.172020
						CHANNELS 3 Zrotation Yrotation Xrotation
						JOINT Head
						{
							OFFSET 0.104070 1.761360 -0.123970
							CHANNELS 3 Zrotation Yrotation Xrotation
							End Site
							{
								OFFSET 0.000000 0.000000 0.000000
							}
						}
					}
				}
				JOINT LeftShoulder
				{
					OFFSET 0.000000 0.000000 0.000000
					CHANNELS 3 Zrotation Yrotation Xrotation
					JOINT LeftArm
					{
						OFFSET 3.362410 1.200890 -0.311210
						CHANNELS 3 Zrotation Yrotation Xrotation
						JOINT LeftForeArm
						{
							OFFSET 4.983000 -0.000000 -0.000000
							CHANNELS 3 Zrotation Yrotation Xrotation
							JOINT LeftHand
							{
								OFFSET 3.483560 -0.000000 -0.000000
								CHANNELS 3 Zrotation Yrotation Xrotation
								JOINT LeftFingerBase
								{
									OFFSET 0.000000 0.000000 0.000000
									CHANNELS 3 Zrotation Yrotation Xrotation
									JOINT LeftHandIndex1
									{
										OFFSET 0.715260 -0.000000 -0.000000
										CHANNELS 3 Zrotation Yrotation Xrotation
										End Site
										{
											OFFSET 0.000000 0.000000 0.000000
										}
									}
								}
								JOINT LThumb
								{
									OFFSET 0.000000 0.000000 0.000000
									CHANNELS 3 Zrotation Yrotation Xrotation
									End Site
									{
										OFFSET 0.000000 0.000000 0.000000
									}
								}
							}
						}
					}
				}
				JOINT RightShoulder
				{
					OFFSET 0.000000 0.000000 0.000000
					CHANNELS 3 Zrotation Yrotation Xrotation
					JOINT RightArm
					{
						OFFSET -3.136600 1.374050 -0.404650
						CHANNELS 3 Zrotation Yrotation Xrotation
						JOINT RightForeArm
						{
							OFFSET -5.241900 -0.000000 -0.000000
							CHANNELS 3 Zrotation Yrotation Xrotation
							JOINT RightHand
							{
								OFFSET -3.444170 -0.000000 -0.000000
								CHANNELS 3 Zrotation Yrotation Xrotation
								JOINT RightFingerBase
								{
									OFFSET 0.000000 0.000000 0.000000
									CHANNELS 3 Zrotation Yrotation Xrotation
									JOINT RightHandIndex1
									{
										OFFSET -0.622530 -0.000000 -0.000000
										CHANNELS 3 Zrotation Yrotation Xrotation
										End Site
										{
											OFFSET 0.000000 0.000000 0.000000
										}
									}
								}
								JOINT RThumb
								{
									OFFSET 0.000000 0.000000 0.000000
									CHANNELS 3 Zrotation Yrotation Xrotation
									End Site
									{
										OFFSET 0.000000 0.000000 0.000000
									}
								}
							}
						}
					}
				}
			}
		}
	}
}
MOTION
Frames: 10
Frame Time: 0.008333
-2.550603 16.753051 0.426684 -137.693393 86.181503 -142.518670 -10.528133 1.991508 -0.314465 -21.447949 23.225691 -24.970404 -2.510939 -0.113511 16.352953 2.862720 15.945676 -12.523047 178.608400 0.000000 -8.042300 9.595409 -4.924451 -1.866251 -3.266325 -20.591879 11.246245 0.227472 -2.937371 33.579661 0.030704 7.489837 16.444070 2.951900 0.000000 -88.650300 -1.038376 0.553097 -0.397333 -0.614697 0.634642 -2.310990 -4.355166 0.601813 2.926772 8.297644 -12.988247 -9.132891 -1.308684 -0.081609 -0.392463 0.000000 0.000000 0.000000 -5.548763 27.909128 0.773096 -77.394185 24.883798 -5.196854 -3.984419 -13.421913 -0.014565 -1.628451 6.701582 -0.091815 -0.092524 -0.118271 -0.000000 0.000000 0.000000 0.000000 0.000000 0.000000 0.000000 8.779902 -8.039059 0.071482 35.602375 14.198769 11.029164 1.327487 47.248467 0.008366 4.230527 3.723058 0.142426 -0.009187 -0.115665 0.000000 0.000000 0.000000 0.000000 0.000000 0.000000 0.000000 
-2.394655 16.737865 0.395069 -139.091910 86.289566 -143.926405 -10.478227 2.040494 -0.312077 -21.436410 22.901266 -24.705708 -2.487973 -0.043651 17.365680 2.937111 16.193050 -13.205051 178.374700 0.000000 -9.979100 9.806441 -4.891564 -1.809930 -4.004729 -20.423274 10.131446 0.018497 -3.030849 36.081088 -0.056130 8.671017 18.650746 3.772500 0.000000 -89.022400 -1.427107 0.487153 -0.453619 -0.700655 0.589863 -2.329512 -4.399456 0.557221 2.907460 8.412678 -12.952189 -9.154955 -1.323408 -0.082430 -0.398664 0.000000 0.000000 0.000000 -5.554137 27.895142 0.773059 -77.104745 24.676758 -5.436015 -4.009240 -13.224137 -0.014747 -1.686973 6.720384 -0.095519 -0.092960 -0.117363 -0.000000 0.000000 0.000000 0.000000 0.000000 0.000000 0.000000 8.929771 -7.993300 0.061446 35.988704 14.099965 10.914402 1.351686 47.112440 0.008512 4.271420 3.729465 0.143935 -0.007989 -0.115256 0.000000 0.000000 0.000000 0.000000 0.000000 0.000000 0.000000 
-2.243600 16.724140 0.363896 -141.405237 86.376748 -146.226403 -10.420322 2.100361 -0.323492 -21.498942 22.614053 -24.511134 -2.471951 0.036517 18.440282 3.020027 16.473193 -13.924053 178.121300 0.000000 -11.471500 10.011998 -4.825943 -1.747928 -4.628453 -20.151101 8.900392 -0.187680 -3.106574 38.667814 -0.181098 9.527532 20.796686 4.522600 0.000001 -88.625900 -1.836374 0.407305 -0.497310 -0.788646 0.533099 -2.345993 -4.442761 0.500313 2.887995 8.511571 -12.914185 -9.182181 -1.342591 -0.083507 -0.406261 0.000000 0.000000 0.000000 -5.556670 27.837059 0.778764 -76.807322 24.332395 -5.670919 -4.030889 -12.962578 -0.014855 -1.706366 6.748580 -0.097022 -0.093463 -0.115963 -0.000000 0.000000 0.000000 0.000000 0.000000 0.000000 0.000000 9.072918 -7.947321 0.048090 36.475123 13.984902 10.726333 1.380323 46.953441 0.008678 4.289956 3.736873 0.144747 -0.006247 -0.115143 0.000000 0.000000 0.000000 0.000000 0.000000 0.000000 0.000000 
-2.097841 16.711902 0.332775 -144.546462 86.419638 -149.334106 -10.359470 2.169743 -0.345190 -21.610592 22.353162 -24.356712 -2.462720 0.123802 19.527019 3.104015 16.751536 -14.651383 177.859000 -0.000000 -12.476200 10.206051 -4.729541 -1.686070 -5.119855 -19.791008 7.576295 -0.385052 -3.168581 41.307822 -0.333467 9.968078 22.783698 5.104800 -0.000000 -87.477400 -2.248227 0.316577 -0.524635 -0.875313 0.466327 -2.359604 -4.484402 0.433183 2.868402 8.589177 -12.880399 -9.213897 -1.365678 -0.084809 -0.415061 0.000000 0.000000 0.000000 -5.548667 27.728212 0.790187 -76.508686 23.849518 -5.905530 -4.047872 -12.639358 -0.014841 -1.662637 6.779455 -0.094723 -0.094138 -0.113989 -0.000000 0.000000 0.000000 0.000000 0.000000 0.000000 0.000000 9.202443 -7.907783 0.031475 37.059030 13.841557 10.460517 1.412967 46.777631 0.008857 4.281152 3.747034 0.144862 -0.003943 -0.115377 0.000000 0.000000 0.000000 0.000000 0.000000 0.000000 0.000000 
-1.957469 16.701232 0.301179 -148.260343 86.395068 -152.997772 -10.298659 2.245911 -0.374074 -21.745892 22.109250 -24.209393 -2.460656 0.213598 20.576522 3.182451 16.992440 -15.376378 177.594900 -0.000000 -13.105300 10.385792 -4.606960 -1.629332 -5.470352 -19.362563 6.181862 -0.570865 -3.222315 43.970114 -0.503096 9.919141 24.512849 5.423000 0.000000 -85.607400 -2.642030 0.218370 -0.532564 -0.957196 0.391637 -2.369946 -4.524098 0.358083 2.847617 8.640413 -12.852568 -9.247509 -1.392367 -0.086354 -0.424340 0.000000 0.000000 0.000000 -5.525456 27.560541 0.806762 -76.214286 23.236341 -6.143367 -4.058681 -12.267791 -0.014666 -1.535847 6.805379 -0.087321 -0.095039 -0.111378 -0.000000 0.000000 0.000000 0.000000 0.000000 0.000000 0.000000 9.311260 -7.876815 0.011771 37.736131 13.651154 10.112261 1.449242 46.594522 0.009048 4.245165 3.760746 0.144080 -0.001123 -0.115958 0.000000 0.000000 0.000000 0.000000 0.000000 0.000000 0.000000 
-1.822390 16.692183 0.268527 -152.153366 86.282845 -156.828480 -10.240017 2.324427 -0.407780 -21.880228 21.874559 -24.035677 -2.465057 0.300698 21.542330 3.248946 17.164899 -16.080678 177.339800 0.000000 -13.381401 10.550653 -4.465327 -1.581400 -5.679199 -18.885485 4.740285 -0.744877 -3.273550 46.618748 -0.682627 9.334724 25.899674 5.402700 -0.000000 -83.192400 -2.996876 0.115588 -0.519045 -1.030940 0.310529 -2.376582 -4.561870 0.276704 2.825289 8.662244 -12.833851 -9.280351 -1.422396 -0.088167 -0.433374 0.000000 0.000000 0.000000 -5.484791 27.331970 0.827146 -75.926795 22.502904 -6.381022 -4.061908 -11.866608 -0.014302 -1.312397 6.817286 -0.073915 -0.096168 -0.108091 -0.000000 0.000000 0.000000 0.000000 0.000000 0.000000 0.000000 9.396064 -7.858509 -0.011006 38.496635 13.401780 9.685521 1.488478 46.411241 0.009241 4.182029 3.780140 0.142600 0.002150 -0.116856 0.000000 0.000000 0.000000 0.000000 0.000000 0.000000 0.000000 
-1.692225 16.684803 0.234142 -155.805004 86.070633 -160.409953 -10.185900 2.399264 -0.444587 -21.992712 21.643302 -23.806215 -2.474551 0.379466 22.386114 3.298990 17.246775 -16.752904 177.102900 0.000000 -13.384900 10.700086 -4.313271 -1.544040 -5.750801 -18.374970 3.272817 -0.908160 -3.327512 49.215748 -0.867498 8.209369 26.878285 5.009200 0.000000 -80.404100 -3.295177 0.010622 -0.483992 -1.093629 0.224148 -2.379426 -4.597888 0.190322 2.801159 8.653323 -12.825787 -9.309224 -1.455605 -0.090288 -0.441311 0.000000 0.000000 0.000000 -5.427544 27.044131 0.849499 -75.646714 21.663077 -6.610682 -4.056575 -11.460762 -0.013741 -0.988034 6.805280 -0.054005 -0.097468 -0.104129 -0.000000 0.000000 0.000000 0.000000 0.000000 0.000000 0.000000 9.455983 -7.855558 -0.036906 39.327366 13.083127 9.187465 1.529938 46.234130 0.009431 4.094446 3.807079 0.140522 0.005777 -0.118008 0.000000 0.000000 0.000000 0.000000 0.000000 0.000000 0.000000 
-1.566472 16.679169 0.197454 -158.895515 85.756563 -163.426245 -10.139638 2.464610 -0.483012 -22.067457 21.411144 -23.498774 -2.487302 0.445027 23.079397 3.330231 17.227755 -17.384344 176.891500 0.000000 -13.194800 10.832473 -4.158681 -1.517312 -5.693946 -17.840220 1.798946 -1.062187 -3.387709 51.720602 -1.055068 6.583764 27.405383 4.258000 -0.000000 -77.435900 -3.524261 -0.094086 -0.429518 -1.142984 0.134018 -2.378752 -4.632609 0.100496 2.775349 8.614558 -12.828970 -9.330621 -1.491968 -0.092772 -0.447230 0.000000 0.000000 0.000000 -5.357537 26.703093 0.871375 -75.373004 20.732560 -6.820932 -4.042286 -11.079517 -0.012996 -0.568862 6.760416 -0.028390 -0.098845 -0.099537 -0.000000 0.000000 0.000000 0.000000 0.000000 0.000000 0.000000 9.493414 -7.869631 -0.066035 40.213182 12.689557 8.629468 1.572941 46.066499 0.009609 3.986703 3.842759 0.137945 0.009642 -0.119320 0.000000 0.000000 0.000000 0.000000 0.000000 0.000000 0.000000 
-1.444540 16.675367 0.157912 -161.270906 85.349194 -165.725646 -10.104508 2.516609 -0.521420 -22.094016 21.174476 -23.100834 -2.501498 0.494161 23.604896 3.342924 17.111473 -17.969267 176.710099 0.000000 -12.898000 10.945764 -4.007199 -1.499262 -5.519659 -17.282143 0.336002 -1.208265 -3.455273 54.093105 -1.243246 4.544240 27.460398 3.213200 0.000000 -74.451600 -3.676053 -0.195608 -0.360578 -1.177446 0.042453 -2.375428 -4.666700 0.009484 2.748053 8.548157 -12.841054 -9.340684 -1.531553 -0.095683 -0.450107 0.000000 0.000000 0.000000 -5.280624 26.318056 0.890058 -75.103371 19.729001 -6.997479 -4.019425 -10.755024 -0.012106 -0.071763 6.675197 0.001428 -0.100182 -0.094407 -0.000000 0.000000 0.000000 0.000000 0.000000 0.000000 0.000000 9.511893 -7.898838 -0.098466 41.138931 12.216553 8.022711 1.617010 45.909506 0.009773 3.865077 3.887587 0.135168 0.013627 -0.120682 0.000000 0.000000 0.000000 0.000000 0.000000 0.000000 0.000000 
-1.325745 16.673476 0.115072 -162.928497 84.863825 -167.306514 -10.082428 2.553857 -0.558280 -22.067618 20.929836 -22.608265 -2.515597 0.525565 23.956360 3.339625 16.913548 -18.505300 176.559800 -0.000000 -12.588500 11.038690 -3.861724 -1.486356 -5.241121 -16.695385 -1.100741 -1.346813 -3.528819 56.292833 -1.429736 2.214027 27.050639 1.977100 0.000000 -71.574200 -3.746538 -0.290936 -0.283874 -1.196316 -0.047882 -2.370195 -4.701040 -0.080092 2.721307 8.459423 -12.866873 -9.337875 -1.574271 -0.099037 -0.449546 0.000000 0.000000 0.000000 -5.204074 25.904563 0.902113 -74.834517 18.665147 -7.123229 -3.989097 -10.516377 -0.011115 0.477478 6.544196 0.033351 -0.101368 -0.088864 -0.000000 0.000000 0.000000 0.000000 0.000000 0.000000 0.000000 9.520528 -7.948583 -0.133969 42.085372 11.678133 7.389216 1.661879 45.755276 0.009913 3.731523 3.942778 0.132291 0.017683 -0.121982 0.000000 0.000000 0.000000 0.000000 0.000000 0.000000 0.000000 
